solid fin
facet normal -2.3570477182814e-016 -1.32649553904373e-016 -1.0
outer loop
vertex 53.1221893242011 50.620150100432 -7.28215784284196e-015
vertex 59.1999803734374 29.4042441845707 -1.62024688441916e-014
vertex 58.8515135685697 23.9774368343702 -1.41231943706918e-014
endloop
endfacet
facet normal -2.3570477182814e-016 -1.32649553904373e-016 -1.0
outer loop
vertex 59.1999803734374 29.4042441845707 -1.62024688441916e-014
vertex 53.1221893242011 50.620150100432 -7.28215784284196e-015
vertex 61.2967292553083 52.7274327652638 -1.07785967109777e-014
endloop
endfacet
facet normal -2.3570477182814e-016 -1.32649553904373e-016 -1.0
outer loop
vertex 59.1999803734374 29.4042441845707 -1.62024688441916e-014
vertex 61.2967292553083 52.7274327652638 -1.07785967109777e-014
vertex 60.4427521023362 34.6983149774611 -1.78796435007475e-014
endloop
endfacet
facet normal -2.3570477182814e-016 -1.32649553904373e-016 -1.0
outer loop
vertex 60.4427521023362 34.6983149774611 -1.78796435007475e-014
vertex 61.2967292553083 52.7274327652638 -1.07785967109777e-014
vertex 62.5454768883892 39.7133140407116 -1.91083589976164e-014
endloop
endfacet
facet normal -2.3570477182814e-016 -1.32649553904373e-016 -1.0
outer loop
vertex 62.5454768883892 39.7133140407116 -1.91083589976164e-014
vertex 61.2967292553083 52.7274327652638 -1.07785967109777e-014
vertex 69.6430973635128 53.9930878198156 -1.47189507089413e-014
endloop
endfacet
facet normal -2.3570477182814e-016 -1.32649553904373e-016 -1.0
outer loop
vertex 62.5454768883892 39.7133140407116 -1.91083589976164e-014
vertex 69.6430973635128 53.9930878198156 -1.47189507089413e-014
vertex 65.4500326161267 44.3106201165296 -1.98546520009077e-014
endloop
endfacet
facet normal -2.3570477182814e-016 -1.32649553904373e-016 -1.0
outer loop
vertex 65.4500326161267 44.3106201165296 -1.98546520009077e-014
vertex 69.6430973635128 53.9930878198156 -1.47189507089413e-014
vertex 69.0761334942195 48.3631575379706 -2.00978939773969e-014
endloop
endfacet
facet normal -2.3570477182814e-016 -1.32649553904373e-016 -1.0
outer loop
vertex 69.0761334942195 48.3631575379706 -2.00978939773969e-014
vertex 69.6430973635128 53.9930878198156 -1.47189507089413e-014
vertex 73.3235492617514 51.7589087697317 -1.98313613946756e-014
endloop
endfacet
facet normal -2.3570477182814e-016 -1.32649553904373e-016 -1.0
outer loop
vertex 73.3235492617514 51.7589087697317 -1.98313613946756e-014
vertex 69.6430973635128 53.9930878198156 -1.47189507089413e-014
vertex 78.0748756862114 54.4040107221171 -1.90624215685487e-014
endloop
endfacet
facet normal -2.3570477182814e-016 -1.32649553904373e-016 -1.0
outer loop
vertex 3.30539964281272 7.76775878333381 1.47777261241611e-015
vertex 70.0 0.0 0.0
vertex 0.0 0.0 0.0
endloop
endfacet
facet normal -2.3570477182814e-016 -1.32649553904373e-016 -1.0
outer loop
vertex 70.0 0.0 0.0
vertex 3.30539964281272 7.76775878333381 1.47777261241611e-015
vertex 7.38306737728166 15.15940062815 2.38472813571992e-015
endloop
endfacet
facet normal -2.3570477182814e-016 -1.32649553904373e-016 -1.0
outer loop
vertex 70.0 0.0 0.0
vertex 7.38306737728166 15.15940062815 2.38472813571992e-015
vertex 12.1907831942702 22.0983927695091 2.7114759885856e-015
endloop
endfacet
facet normal -2.3570477182814e-016 -1.32649553904373e-016 -1.0
outer loop
vertex 70.0 0.0 0.0
vertex 12.1907831942702 22.0983927695091 2.7114759885856e-015
vertex 17.678768195904 28.5128891594534 2.45463303677275e-015
endloop
endfacet
facet normal -2.3570477182814e-016 -1.32649553904373e-016 -1.0
outer loop
vertex 70.0 0.0 0.0
vertex 17.678768195904 28.5128891594534 2.45463303677275e-015
vertex 23.7902000042948 34.3364743581223 1.61685862196353e-015
endloop
endfacet
facet normal -2.3570477182814e-016 -1.32649553904373e-016 -1.0
outer loop
vertex 70.0 0.0 0.0
vertex 23.7902000042948 34.3364743581223 1.61685862196353e-015
vertex 30.4618010981757 39.5088511965684 2.06827027044852e-016
endloop
endfacet
facet normal -2.3570477182814e-016 -1.32649553904373e-016 -1.0
outer loop
vertex 70.0 0.0 0.0
vertex 30.4618010981757 39.5088511965684 2.06827027044852e-016
vertex 66.2217723076106 3.91109481280465 -3.06614153911754e-015
endloop
endfacet
facet normal -2.3570477182814e-016 -1.32649553904373e-016 -1.0
outer loop
vertex 66.2217723076106 3.91109481280465 -3.06614153911754e-015
vertex 30.4618010981757 39.5088511965684 2.06827027044852e-016
vertex 37.6244939858326 43.9764650912413 -1.76086233707072e-015
endloop
endfacet
facet normal -2.3570477182814e-016 -1.32649553904373e-016 -1.0
outer loop
vertex 66.2217723076106 3.91109481280465 -3.06614153911754e-015
vertex 37.6244939858326 43.9764650912413 -1.76086233707072e-015
vertex 63.1437578519765 8.39411769264726 -6.09328885529815e-015
endloop
endfacet
facet normal -2.3570477182814e-016 -1.32649553904373e-016 -1.0
outer loop
vertex 63.1437578519765 8.39411769264726 -6.09328885529815e-015
vertex 37.6244939858326 43.9764650912413 -1.76086233707072e-015
vertex 60.8510370548409 13.3251519124299 -8.99776756232554e-015
endloop
endfacet
facet normal -2.3570477182814e-016 -1.32649553904373e-016 -1.0
outer loop
vertex 60.8510370548409 13.3251519124299 -8.99776756232554e-015
vertex 37.6244939858326 43.9764650912413 -1.76086233707072e-015
vertex 45.2041164307001 47.6930585460097 -4.26583609316348e-015
endloop
endfacet
facet normal -2.3570477182814e-016 -1.32649553904373e-016 -1.0
outer loop
vertex 60.8510370548409 13.3251519124299 -8.99776756232554e-015
vertex 45.2041164307001 47.6930585460097 -4.26583609316348e-015
vertex 59.406983774635 18.5678971145365 -1.16992939978256e-014
endloop
endfacet
facet normal -2.3570477182814e-016 -1.32649553904373e-016 -1.0
outer loop
vertex 59.406983774635 18.5678971145365 -1.16992939978256e-014
vertex 45.2041164307001 47.6930585460097 -4.26583609316348e-015
vertex 53.1221893242011 50.620150100432 -7.28215784284196e-015
endloop
endfacet
facet normal -2.3570477182814e-016 -1.32649553904373e-016 -1.0
outer loop
vertex 59.406983774635 18.5678971145365 -1.16992939978256e-014
vertex 53.1221893242011 50.620150100432 -7.28215784284196e-015
vertex 58.8515135685697 23.9774368343702 -1.41231943706918e-014
endloop
endfacet
facet normal 2.3570477182814e-016 1.32649553904373e-016 1.0
outer loop
vertex 70.0 1.32649553904373e-015 10.0
vertex 3.30539964281272 7.76775878333381 10.0
vertex 2.3570477182814e-015 1.32649553904373e-015 10.0
endloop
endfacet
facet normal 2.3570477182814e-016 1.32649553904373e-016 1.0
outer loop
vertex 3.30539964281272 7.76775878333381 10.0
vertex 70.0 1.32649553904373e-015 10.0
vertex 7.38306737728166 15.15940062815 10.0
endloop
endfacet
facet normal 2.3570477182814e-016 1.32649553904373e-016 1.0
outer loop
vertex 7.38306737728166 15.15940062815 10.0
vertex 70.0 1.32649553904373e-015 10.0
vertex 12.1907831942702 22.0983927695091 10.0
endloop
endfacet
facet normal 2.3570477182814e-016 1.32649553904373e-016 1.0
outer loop
vertex 12.1907831942702 22.0983927695091 10.0
vertex 70.0 1.32649553904373e-015 10.0
vertex 17.678768195904 28.5128891594534 10.0
endloop
endfacet
facet normal 2.3570477182814e-016 1.32649553904373e-016 1.0
outer loop
vertex 17.678768195904 28.5128891594534 10.0
vertex 70.0 1.32649553904373e-015 10.0
vertex 23.7902000042948 34.3364743581223 10.0
endloop
endfacet
facet normal 2.3570477182814e-016 1.32649553904373e-016 1.0
outer loop
vertex 23.7902000042948 34.3364743581223 10.0
vertex 70.0 1.32649553904373e-015 10.0
vertex 30.4618010981757 39.5088511965684 10.0
endloop
endfacet
facet normal 2.3570477182814e-016 1.32649553904373e-016 1.0
outer loop
vertex 30.4618010981757 39.5088511965684 10.0
vertex 70.0 1.32649553904373e-015 10.0
vertex 66.2217723076106 3.91109481280465 10.0
endloop
endfacet
facet normal 2.3570477182814e-016 1.32649553904373e-016 1.0
outer loop
vertex 30.4618010981757 39.5088511965684 10.0
vertex 66.2217723076106 3.91109481280465 10.0
vertex 37.6244939858326 43.9764650912413 10.0
endloop
endfacet
facet normal 2.3570477182814e-016 1.32649553904373e-016 1.0
outer loop
vertex 37.6244939858326 43.9764650912413 10.0
vertex 66.2217723076106 3.91109481280465 10.0
vertex 63.1437578519765 8.39411769264726 9.99999999999999
endloop
endfacet
facet normal 2.3570477182814e-016 1.32649553904373e-016 1.0
outer loop
vertex 37.6244939858326 43.9764650912413 10.0
vertex 63.1437578519765 8.39411769264726 9.99999999999999
vertex 60.8510370548409 13.3251519124299 9.99999999999999
endloop
endfacet
facet normal 2.3570477182814e-016 1.32649553904373e-016 1.0
outer loop
vertex 37.6244939858326 43.9764650912413 10.0
vertex 60.8510370548409 13.3251519124299 9.99999999999999
vertex 45.2041164307001 47.6930585460097 10.0
endloop
endfacet
facet normal 2.3570477182814e-016 1.32649553904373e-016 1.0
outer loop
vertex 45.2041164307001 47.6930585460097 10.0
vertex 60.8510370548409 13.3251519124299 9.99999999999999
vertex 59.406983774635 18.5678971145365 9.99999999999999
endloop
endfacet
facet normal 2.3570477182814e-016 1.32649553904373e-016 1.0
outer loop
vertex 45.2041164307001 47.6930585460097 10.0
vertex 59.406983774635 18.5678971145365 9.99999999999999
vertex 53.1221893242011 50.620150100432 9.99999999999999
endloop
endfacet
facet normal 2.3570477182814e-016 1.32649553904373e-016 1.0
outer loop
vertex 53.1221893242011 50.620150100432 9.99999999999999
vertex 59.406983774635 18.5678971145365 9.99999999999999
vertex 58.8515135685697 23.9774368343702 9.99999999999999
endloop
endfacet
facet normal 2.3570477182814e-016 1.32649553904373e-016 1.0
outer loop
vertex 53.1221893242011 50.620150100432 9.99999999999999
vertex 59.1999803734374 29.4042441845707 9.99999999999998
vertex 61.2967292553083 52.7274327652638 9.99999999999999
endloop
endfacet
facet normal 2.3570477182814e-016 1.32649553904373e-016 1.0
outer loop
vertex 59.1999803734374 29.4042441845707 9.99999999999998
vertex 53.1221893242011 50.620150100432 9.99999999999999
vertex 58.8515135685697 23.9774368343702 9.99999999999999
endloop
endfacet
facet normal 2.3570477182814e-016 1.32649553904373e-016 1.0
outer loop
vertex 61.2967292553083 52.7274327652638 9.99999999999999
vertex 59.1999803734374 29.4042441845707 9.99999999999998
vertex 60.4427521023362 34.6983149774611 9.99999999999998
endloop
endfacet
facet normal 2.3570477182814e-016 1.32649553904373e-016 1.0
outer loop
vertex 61.2967292553083 52.7274327652638 9.99999999999999
vertex 60.4427521023362 34.6983149774611 9.99999999999998
vertex 62.5454768883892 39.7133140407116 9.99999999999998
endloop
endfacet
facet normal 2.3570477182814e-016 1.32649553904373e-016 1.0
outer loop
vertex 61.2967292553083 52.7274327652638 9.99999999999999
vertex 62.5454768883892 39.7133140407116 9.99999999999998
vertex 69.6430973635128 53.9930878198156 9.99999999999999
endloop
endfacet
facet normal 2.3570477182814e-016 1.32649553904373e-016 1.0
outer loop
vertex 69.6430973635128 53.9930878198156 9.99999999999999
vertex 62.5454768883892 39.7133140407116 9.99999999999998
vertex 65.4500326161267 44.3106201165296 9.99999999999998
endloop
endfacet
facet normal 2.3570477182814e-016 1.32649553904373e-016 1.0
outer loop
vertex 69.6430973635128 53.9930878198156 9.99999999999999
vertex 65.4500326161267 44.3106201165296 9.99999999999998
vertex 69.0761334942195 48.3631575379706 9.99999999999998
endloop
endfacet
facet normal 2.3570477182814e-016 1.32649553904373e-016 1.0
outer loop
vertex 69.6430973635128 53.9930878198156 9.99999999999999
vertex 69.0761334942195 48.3631575379706 9.99999999999998
vertex 73.3235492617514 51.7589087697317 9.99999999999998
endloop
endfacet
facet normal 2.3570477182814e-016 1.32649553904373e-016 1.0
outer loop
vertex 69.6430973635128 53.9930878198156 9.99999999999999
vertex 73.3235492617514 51.7589087697317 9.99999999999998
vertex 78.0748756862114 54.4040107221171 9.99999999999998
endloop
endfacet
facet normal -0.0994311020316304 0.995044449232684 -1.08555817088753e-016
outer loop
vertex 69.6430973635128 53.9930878198156 -1.47189507089413e-014
vertex 78.0748756862114 54.4040107221171 9.99999999999998
vertex 78.0748756862114 54.4040107221171 -1.90624215685487e-014
endloop
endfacet
facet normal -0.0486772495871787 0.998814560052379 -1.21018845816974e-016
outer loop
vertex 78.0748756862114 54.4040107221171 9.99999999999998
vertex 69.6430973635128 53.9930878198156 -1.47189507089413e-014
vertex 69.6430973635128 53.9930878198156 9.99999999999999
endloop
endfacet
facet normal 0.486412258665202 -0.873729428725058 1.25012851041024e-018
outer loop
vertex 78.0748756862114 54.4040107221171 -1.90624215685487e-014
vertex 73.3235492617514 51.7589087697317 9.99999999999998
vertex 73.3235492617514 51.7589087697317 -1.98313613946756e-014
endloop
endfacet
facet normal 0.557360451286334 -0.830270634999152 -2.12374886439362e-017
outer loop
vertex 73.3235492617514 51.7589087697317 9.99999999999998
vertex 78.0748756862114 54.4040107221171 -1.90624215685487e-014
vertex 78.0748756862114 54.4040107221171 9.99999999999998
endloop
endfacet
facet normal 0.557360451286334 -0.830270634999152 -2.12374886439362e-017
outer loop
vertex 73.3235492617514 51.7589087697317 -1.98313613946756e-014
vertex 69.0761334942195 48.3631575379706 9.99999999999998
vertex 69.0761334942195 48.3631575379706 -2.00978939773969e-014
endloop
endfacet
facet normal 0.687217748637627 -0.726451489059959 -6.56170366819087e-017
outer loop
vertex 69.0761334942195 48.3631575379706 9.99999999999998
vertex 73.3235492617514 51.7589087697317 -1.98313613946756e-014
vertex 73.3235492617514 51.7589087697317 9.99999999999998
endloop
endfacet
facet normal 0.687217748637627 -0.726451489059959 -6.56170366819087e-017
outer loop
vertex 69.0761334942195 48.3631575379706 -2.00978939773969e-014
vertex 65.4500326161267 44.3106201165296 9.99999999999998
vertex 65.4500326161267 44.3106201165296 -1.98546520009077e-014
endloop
endfacet
facet normal 0.798079431534732 -0.602552255792972 -1.08182842375614e-016
outer loop
vertex 65.4500326161267 44.3106201165296 9.99999999999998
vertex 69.0761334942195 48.3631575379706 -2.00978939773969e-014
vertex 69.0761334942195 48.3631575379706 9.99999999999998
endloop
endfacet
facet normal 0.798079431534732 -0.602552255792972 -1.08182842375614e-016
outer loop
vertex 65.4500326161267 44.3106201165296 -1.98546520009077e-014
vertex 62.5454768883892 39.7133140407116 9.99999999999998
vertex 62.5454768883892 39.7133140407116 -1.91083589976164e-014
endloop
endfacet
facet normal 0.886881135312692 -0.461997675131023 -1.47758330126572e-016
outer loop
vertex 62.5454768883892 39.7133140407116 9.99999999999998
vertex 65.4500326161267 44.3106201165296 -1.98546520009077e-014
vertex 65.4500326161267 44.3106201165296 9.99999999999998
endloop
endfacet
facet normal 0.886881135312692 -0.461997675131023 -1.47758330126572e-016
outer loop
vertex 62.5454768883892 39.7133140407116 -1.91083589976164e-014
vertex 60.4427521023362 34.6983149774611 9.99999999999998
vertex 60.4427521023362 34.6983149774611 -1.78796435007475e-014
endloop
endfacet
facet normal 0.951168262529599 -0.308672863006167 -1.83249580709554e-016
outer loop
vertex 60.4427521023362 34.6983149774611 9.99999999999998
vertex 62.5454768883892 39.7133140407116 -1.91083589976164e-014
vertex 62.5454768883892 39.7133140407116 9.99999999999998
endloop
endfacet
facet normal 0.951168262529599 -0.308672863006167 -1.83249580709554e-016
outer loop
vertex 60.4427521023362 34.6983149774611 -1.78796435007475e-014
vertex 59.1999803734374 29.4042441845707 9.99999999999998
vertex 59.1999803734374 29.4042441845707 -1.62024688441916e-014
endloop
endfacet
facet normal 0.98916383131122 -0.14681592156748 -2.13675568657874e-016
outer loop
vertex 59.1999803734374 29.4042441845707 9.99999999999998
vertex 60.4427521023362 34.6983149774611 -1.78796435007475e-014
vertex 60.4427521023362 34.6983149774611 9.99999999999998
endloop
endfacet
facet normal 0.98916383131122 -0.14681592156748 -2.13675568657874e-016
outer loop
vertex 59.1999803734374 29.4042441845707 -1.62024688441916e-014
vertex 58.8515135685697 23.9774368343702 9.99999999999999
vertex 58.8515135685697 23.9774368343702 -1.41231943706918e-014
endloop
endfacet
facet normal 0.999817593498257 0.0190992076106252 -2.38195279114743e-016
outer loop
vertex 58.8515135685697 23.9774368343702 9.99999999999999
vertex 59.1999803734374 29.4042441845707 -1.62024688441916e-014
vertex 59.1999803734374 29.4042441845707 9.99999999999998
endloop
endfacet
facet normal 0.999817593498257 0.0190992076106251 -2.38195279114744e-016
outer loop
vertex 58.8515135685697 23.9774368343702 -1.41231943706918e-014
vertex 59.406983774635 18.5678971145365 9.99999999999999
vertex 59.406983774635 18.5678971145365 -1.16992939978256e-014
endloop
endfacet
facet normal 0.982835064905177 0.184486409236116 -2.56130954604761e-016
outer loop
vertex 59.406983774635 18.5678971145365 9.99999999999999
vertex 58.8515135685697 23.9774368343702 -1.41231943706918e-014
vertex 58.8515135685697 23.9774368343702 9.99999999999999
endloop
endfacet
facet normal 0.982835064905177 0.184486409236116 -2.56130954604761e-016
outer loop
vertex 59.406983774635 18.5678971145365 -1.16992939978256e-014
vertex 60.8510370548409 13.3251519124299 9.99999999999999
vertex 60.8510370548409 13.3251519124299 -8.99776756232554e-015
endloop
endfacet
facet normal 0.93868566525557 0.344774160638101 -2.66986829153809e-016
outer loop
vertex 60.8510370548409 13.3251519124299 9.99999999999999
vertex 59.406983774635 18.5678971145365 -1.16992939978256e-014
vertex 59.406983774635 18.5678971145365 9.99999999999999
endloop
endfacet
facet normal 0.93868566525557 0.344774160638101 -2.66986829153809e-016
outer loop
vertex 60.8510370548409 13.3251519124299 -8.99776756232554e-015
vertex 63.1437578519765 8.39411769264726 9.99999999999999
vertex 63.1437578519765 8.39411769264726 -6.09328885529815e-015
endloop
endfacet
facet normal 0.868589742795375 0.495531894746105 -2.70462831921307e-016
outer loop
vertex 63.1437578519765 8.39411769264726 9.99999999999999
vertex 60.8510370548409 13.3251519124299 -8.99776756232554e-015
vertex 60.8510370548409 13.3251519124299 9.99999999999999
endloop
endfacet
facet normal 0.868589742795375 0.495531894746105 -2.70462831921307e-016
outer loop
vertex 63.1437578519765 8.39411769264726 -6.09328885529815e-015
vertex 66.2217723076106 3.91109481280465 10.0
vertex 66.2217723076106 3.91109481280465 -3.06614153911754e-015
endloop
endfacet
facet normal 0.774484842240955 0.632592466868681 -2.66462881558155e-016
outer loop
vertex 66.2217723076106 3.91109481280465 10.0
vertex 63.1437578519765 8.39411769264726 -6.09328885529815e-015
vertex 63.1437578519765 8.39411769264726 9.99999999999999
endloop
endfacet
facet normal 0.774484842240955 0.632592466868681 -2.66462881558155e-016
outer loop
vertex 66.2217723076106 3.91109481280465 -3.06614153911754e-015
vertex 70.0 1.32649553904373e-015 10.0
vertex 70.0 0.0 0.0
endloop
endfacet
facet normal 0.719217820709869 0.694784661872545 -2.61685947782146e-016
outer loop
vertex 70.0 1.32649553904373e-015 10.0
vertex 66.2217723076106 3.91109481280465 -3.06614153911754e-015
vertex 66.2217723076106 3.91109481280465 10.0
endloop
endfacet
facet normal 0.0 -1.0 1.32649553904373e-016
outer loop
vertex 70.0 1.32649553904373e-015 10.0
vertex 0.0 0.0 0.0
vertex 70.0 0.0 0.0
endloop
endfacet
facet normal 0.0 -1.0 1.32649553904373e-016
outer loop
vertex 0.0 0.0 0.0
vertex 70.0 1.32649553904373e-015 10.0
vertex 2.3570477182814e-015 1.32649553904373e-015 10.0
endloop
endfacet
facet normal -0.920155900076537 0.391552192631249 1.64945912791043e-016
outer loop
vertex 2.3570477182814e-015 1.32649553904373e-015 10.0
vertex 3.30539964281272 7.76775878333381 1.47777261241611e-015
vertex 0.0 0.0 0.0
endloop
endfacet
facet normal -0.899043139887719 0.437860060545412 1.53826816446999e-016
outer loop
vertex 3.30539964281272 7.76775878333381 1.47777261241611e-015
vertex 2.3570477182814e-015 1.32649553904373e-015 10.0
vertex 3.30539964281272 7.76775878333381 10.0
endloop
endfacet
facet normal -0.899043139887719 0.437860060545412 1.53826816446999e-016
outer loop
vertex 3.30539964281272 7.76775878333381 10.0
vertex 7.38306737728166 15.15940062815 2.38472813571992e-015
vertex 3.30539964281272 7.76775878333381 1.47777261241611e-015
endloop
endfacet
facet normal -0.849892320385562 0.526956396440583 1.30423144540068e-016
outer loop
vertex 7.38306737728166 15.15940062815 2.38472813571992e-015
vertex 3.30539964281272 7.76775878333381 10.0
vertex 7.38306737728166 15.15940062815 10.0
endloop
endfacet
facet normal -0.791941749685315 0.610596646817981 1.05669076594844e-016
outer loop
vertex 12.1907831942702 22.0983927695091 10.0
vertex 7.38306737728166 15.15940062815 2.38472813571992e-015
vertex 7.38306737728166 15.15940062815 10.0
endloop
endfacet
facet normal -0.849892320385562 0.526956396440583 1.30423144540068e-016
outer loop
vertex 7.38306737728166 15.15940062815 2.38472813571992e-015
vertex 12.1907831942702 22.0983927695091 10.0
vertex 12.1907831942702 22.0983927695091 2.7114759885856e-015
endloop
endfacet
facet normal -0.725791445685381 0.687914803860132 7.98209152438278e-017
outer loop
vertex 17.678768195904 28.5128891594534 10.0
vertex 12.1907831942702 22.0983927695091 2.7114759885856e-015
vertex 12.1907831942702 22.0983927695091 10.0
endloop
endfacet
facet normal -0.791941749685315 0.610596646817981 1.05669076594844e-016
outer loop
vertex 12.1907831942702 22.0983927695091 2.7114759885856e-015
vertex 17.678768195904 28.5128891594534 10.0
vertex 17.678768195904 28.5128891594534 2.45463303677275e-015
endloop
endfacet
facet normal -0.725791445685381 0.687914803860132 7.98209152438278e-017
outer loop
vertex 17.678768195904 28.5128891594534 2.45463303677275e-015
vertex 23.7902000042948 34.3364743581223 10.0
vertex 23.7902000042948 34.3364743581223 1.61685862196353e-015
endloop
endfacet
facet normal -0.65212632599581 0.758110318451877 5.31462913190218e-017
outer loop
vertex 23.7902000042948 34.3364743581223 10.0
vertex 17.678768195904 28.5128891594534 2.45463303677275e-015
vertex 17.678768195904 28.5128891594534 10.0
endloop
endfacet
facet normal -0.65212632599581 0.758110318451877 5.31462913190218e-017
outer loop
vertex 23.7902000042948 34.3364743581223 1.61685862196353e-015
vertex 30.4618010981757 39.5088511965684 10.0
vertex 30.4618010981757 39.5088511965684 2.06827027044852e-016
endloop
endfacet
facet normal -0.571709116328669 0.820456389033989 2.59213928129649e-017
outer loop
vertex 30.4618010981757 39.5088511965684 10.0
vertex 23.7902000042948 34.3364743581223 1.61685862196353e-015
vertex 23.7902000042948 34.3364743581223 10.0
endloop
endfacet
facet normal -0.571709116328669 0.820456389033989 2.59213928129649e-017
outer loop
vertex 30.4618010981757 39.5088511965684 2.06827027044852e-016
vertex 37.6244939858326 43.9764650912413 10.0
vertex 37.6244939858326 43.9764650912413 -1.76086233707072e-015
endloop
endfacet
facet normal -0.485372453266432 0.874307486877543 -1.57189476073096e-018
outer loop
vertex 37.6244939858326 43.9764650912413 10.0
vertex 30.4618010981757 39.5088511965684 2.06827027044852e-016
vertex 30.4618010981757 39.5088511965684 10.0
endloop
endfacet
facet normal -0.485372453266432 0.874307486877543 -1.57189476073097e-018
outer loop
vertex 37.6244939858326 43.9764650912413 -1.76086233707072e-015
vertex 45.2041164307001 47.6930585460097 10.0
vertex 45.2041164307001 47.6930585460097 -4.26583609316348e-015
endloop
endfacet
facet normal -0.394010263175998 0.919106039862638 -2.90489069987499e-017
outer loop
vertex 45.2041164307001 47.6930585460097 10.0
vertex 37.6244939858326 43.9764650912413 -1.76086233707072e-015
vertex 37.6244939858326 43.9764650912413 10.0
endloop
endfacet
facet normal -0.394010263175998 0.919106039862638 -2.90489069987499e-017
outer loop
vertex 45.2041164307001 47.6930585460097 -4.26583609316348e-015
vertex 53.1221893242011 50.620150100432 9.99999999999999
vertex 53.1221893242011 50.620150100432 -7.28215784284196e-015
endloop
endfacet
facet normal -0.298568506530747 0.954388205557885 -5.62251480119504e-017
outer loop
vertex 53.1221893242011 50.620150100432 9.99999999999999
vertex 45.2041164307001 47.6930585460097 -4.26583609316348e-015
vertex 45.2041164307001 47.6930585460097 10.0
endloop
endfacet
facet normal -0.298568506530747 0.954388205557885 -5.62251480119504e-017
outer loop
vertex 53.1221893242011 50.620150100432 -7.28215784284196e-015
vertex 61.2967292553083 52.7274327652638 9.99999999999999
vertex 61.2967292553083 52.7274327652638 -1.07785967109777e-014
endloop
endfacet
facet normal -0.200035383473495 0.979788673826459 -8.28192360844628e-017
outer loop
vertex 61.2967292553083 52.7274327652638 9.99999999999999
vertex 53.1221893242011 50.620150100432 -7.28215784284196e-015
vertex 53.1221893242011 50.620150100432 9.99999999999999
endloop
endfacet
facet normal -0.200035383473495 0.979788673826459 -8.28192360844628e-017
outer loop
vertex 61.2967292553083 52.7274327652638 -1.07785967109777e-014
vertex 69.6430973635128 53.9930878198156 9.99999999999999
vertex 69.6430973635128 53.9930878198156 -1.47189507089413e-014
endloop
endfacet
facet normal -0.0994311020316304 0.995044449232684 -1.08555817088752e-016
outer loop
vertex 69.6430973635128 53.9930878198156 9.99999999999999
vertex 61.2967292553083 52.7274327652638 -1.07785967109777e-014
vertex 61.2967292553083 52.7274327652638 9.99999999999999
endloop
endfacet
endsolid fin
